<?xml version="1.0" encoding="utf-8"?>
<!-- Generator: Adobe Illustrator 27.0.0, SVG Export Plug-In . SVG Version: 6.00 Build 0)  -->
<svg version="1.1" id="Capa_1" xmlns="http://www.w3.org/2000/svg" xmlns:xlink="http://www.w3.org/1999/xlink" x="0px" y="0px"
	 viewBox="0 0 834 334" style="enable-background:new 0 0 834 334;" xml:space="preserve">
<style type="text/css">
	.st0{fill:#FFFFFF;}
	.st1{fill:#D30D46;}
</style>
<path class="st0" d="M171,5C82.6,5,11,76.6,11,165c0,88.2,71.8,160,160,160s160-71.8,160-160C331,76.6,259.4,5,171,5z M171,305
	c-77.2,0-140-62.8-140-140h80c0-33.1,26.9-60,60-60s60,26.9,60,60h80C311,242.2,248.2,305,171,305z"/>
<path class="st1" d="M171,125c-22.1,0-40,17.9-40,40s17.9,40,40,40s40-17.9,40-40S193.1,125,171,125z M171,185c-11,0-20-9-20-20
	s9-20,20-20s20,9,20,20S182,185,171,185z"/>
<path class="st0" d="M390.3,93.2h2.9v2.9h-2.9V99h-17.6v20.6h17.6v2.9h2.9v5.9h-2.9v2.9h-32.4v-2.9H355v-2.9H352V96.1h2.9V99h2.9
	v-2.9h2.9v-2.9h-2.9v-2.9h32.4V93.2z"/>
<path class="st0" d="M434.4,122.6h2.9v5.9h-2.9v2.9H402v-2.9h-2.9V93.2h2.9V99h2.9v-2.9h2.9v-2.9H402v-2.9h14.7v2.9h2.9v26.5h14.7
	V122.6z"/>
<path class="st0" d="M457.9,99h2.9v29.4h-2.9v2.9h-11.8v-2.9h-2.9V99h2.9v5.9h2.9V102h2.9V99h-5.9v-2.9h11.8V99z"/>
<path class="st0" d="M499.1,99h2.9v2.9h-2.9v2.9h-14.7v14.7h14.7v2.9h2.9v5.9h-2.9v2.9h-26.5v-2.9h-2.9v-2.9h-2.9V102h2.9v2.9h2.9
	V102h2.9V99h-2.9v-2.9h26.5V99z"/>
<path class="st0" d="M540.3,99h2.9v5.9h-2.9v2.9h-2.9v2.9h-2.9v2.9h2.9v2.9h2.9v2.9h2.9v8.8h-2.9v2.9h-5.9v-2.9h-2.9v-2.9h-2.9v-2.9
	h-2.9v5.9h-2.9v2.9h-11.8v-2.9h-2.9V99h2.9v5.9h2.9V102h2.9V99h-5.9v-2.9h11.8V99h2.9v5.9h2.9V102h2.9V99h2.9v-2.9h5.9V99z"/>
<path class="st0" d="M625.6,99v29.4h-2.9v2.9h-5.9v-2.9h-2.9v-11.8h-5.9v11.8H605v2.9h-11.8v-2.9h-2.9V99h2.9v5.9h2.9V102h2.9V99
	h-5.9v-2.9H605V99h2.9v8.8h5.9V99h2.9v-2.9h5.9V99H625.6z"/>
<path class="st0" d="M663.8,99h2.9v2.9h-2.9v2.9h-14.7v2.9h14.7v2.9h2.9v2.9h-2.9v2.9h-14.7v2.9h14.7v2.9h2.9v5.9h-2.9v2.9h-29.4
	v-2.9h-2.9V99h2.9v5.9h2.9V102h2.9V99h-5.9v-2.9h29.4V99z"/>
<path class="st0" d="M705,102h2.9v8.8H705v2.9H702v2.9h2.9v2.9h2.9v8.8H705v2.9H702v-2.9h-2.9v-2.9h-2.9v-2.9h-2.9v-2.9h-2.9v8.8
	h-2.9v2.9h-11.8v-2.9h-2.9V99h2.9v5.9h2.9V102h2.9V99h-5.9v-2.9H702V99h2.9V102z M699.1,107.9v-2.9h-8.8v2.9H699.1z"/>
<path class="st0" d="M746.2,99h2.9v2.9h-2.9v2.9h-14.7v2.9h14.7v2.9h2.9v2.9h-2.9v2.9h-14.7v2.9h14.7v2.9h2.9v5.9h-2.9v2.9h-29.4
	v-2.9h-2.9V99h2.9v5.9h2.9V102h2.9V99h-5.9v-2.9h29.4V99z"/>
<path class="st1" d="M772.6,93.2h2.9v11.8h-2.9v5.9h-2.9v2.9h-8.8v-2.9h-2.9v-5.9H755V93.2h2.9V99h2.9v-2.9h2.9v-2.9h-5.9v-2.9h14.7
	V93.2z M769.7,119.6h2.9v8.8h-2.9v2.9h-8.8v-2.9h-2.9v-8.8h2.9v-2.9h8.8V119.6z"/>
<path class="st1" d="M799.1,93.2h2.9v11.8h-2.9v5.9h-2.9v2.9h-8.8v-2.9h-2.9v-5.9h-2.9V93.2h2.9V99h2.9v-2.9h2.9v-2.9h-5.9v-2.9
	h14.7V93.2z M796.2,119.6h2.9v8.8h-2.9v2.9h-8.8v-2.9h-2.9v-8.8h2.9v-2.9h8.8V119.6z"/>
<path class="st1" d="M825.6,93.2h2.9v11.8h-2.9v5.9h-2.9v2.9h-8.8v-2.9h-2.9v-5.9h-2.9V93.2h2.9V99h2.9v-2.9h2.9v-2.9h-5.9v-2.9
	h14.7V93.2z M822.6,119.6h2.9v8.8h-2.9v2.9h-8.8v-2.9h-2.9v-8.8h2.9v-2.9h8.8V119.6z"/>
<path class="st1" d="M355,159H352v-5.9h2.9V159z M390.3,153.2h2.9v5.9h-2.9v2.9h-8.8v26.5h-2.9v2.9h-11.8v-2.9h-2.9V162H355V159h2.9
	v-2.9h2.9v-2.9H355v-2.9h35.3V153.2z"/>
<path class="st1" d="M431.5,162h2.9v23.5h-2.9v2.9h-2.9v2.9H405v-2.9H402v-2.9h-2.9V162h2.9v2.9h2.9V162h2.9V159H405v-2.9h23.5v2.9
	h2.9V162z M425.6,164.9h-8.8v14.7h8.8V164.9z"/>
<path class="st0" d="M513.8,159h2.9v2.9h-2.9v2.9h-14.7v2.9h14.7v2.9h2.9v14.7h-2.9v2.9h-2.9v2.9h-26.5v-2.9h-2.9v-8.8h2.9v-2.9H505
	v-2.9h-20.6v-2.9h-2.9V162h2.9v2.9h2.9V162h2.9V159h-2.9v-2.9h26.5V159z"/>
<path class="st0" d="M555,159h2.9v2.9H555v2.9h-14.7v2.9H555v2.9h2.9v2.9H555v2.9h-14.7v2.9H555v2.9h2.9v5.9H555v2.9h-29.4v-2.9
	h-2.9V159h2.9v5.9h2.9V162h2.9V159h-5.9v-2.9H555V159z"/>
<path class="st0" d="M596.2,159h2.9v2.9h-2.9v2.9h-14.7v2.9h14.7v2.9h2.9v2.9h-2.9v2.9h-14.7v2.9h14.7v2.9h2.9v5.9h-2.9v2.9h-29.4
	v-2.9h-2.9V159h2.9v5.9h2.9V162h2.9V159h-5.9v-2.9h29.4V159z"/>
<path class="st1" d="M649.1,164.9h-2.9V159h2.9V164.9z M678.5,159h2.9v5.9h-2.9v2.9h-2.9v2.9h-2.9v17.6h-2.9v2.9h-8.8v-2.9h-2.9
	v-14.7H655v-2.9H652v-2.9h-2.9v-2.9h2.9V162h2.9V159h-5.9v-2.9h8.8v2.9h2.9v2.9h5.9V159h2.9v-2.9h8.8V159z"/>
<path class="st1" d="M719.7,162h2.9v23.5h-2.9v2.9h-2.9v2.9h-23.5v-2.9h-2.9v-2.9h-2.9V162h2.9v2.9h2.9V162h2.9V159h-2.9v-2.9h23.5
	v2.9h2.9V162z M713.8,164.9H705v14.7h8.8V164.9z"/>
<path class="st1" d="M760.9,159h2.9v26.5h-2.9v2.9h-2.9v2.9h-23.5v-2.9h-2.9v-2.9h-2.9V159h2.9v5.9h2.9V162h2.9V159h-5.9v-2.9h11.8
	v2.9h2.9v20.6h5.9V159h2.9v-2.9h5.9V159z"/>
<path class="st1" d="M802,162h2.9v8.8H802v2.9h-2.9v2.9h2.9v2.9h2.9v8.8H802v2.9h-2.9v-2.9h-2.9v-2.9h-2.9v-2.9h-2.9v-2.9h-2.9v8.8
	h-2.9v2.9h-11.8v-2.9h-2.9V159h2.9v5.9h2.9V162h2.9V159h-5.9v-2.9h26.5v2.9h2.9V162z M796.2,167.9v-2.9h-8.8v2.9H796.2z"/>
<path class="st1" d="M355,219H352v-5.9h2.9V219z M390.3,213.2h2.9v5.9h-2.9v2.9h-8.8v26.5h-2.9v2.9h-11.8v-2.9h-2.9V222H355V219h2.9
	v-2.9h2.9v-2.9H355v-2.9h35.3V213.2z"/>
<path class="st1" d="M431.5,219h2.9v2.9h-2.9v2.9h-14.7v2.9h14.7v2.9h2.9v2.9h-2.9v2.9h-14.7v2.9h14.7v2.9h2.9v5.9h-2.9v2.9H402
	v-2.9h-2.9V219h2.9v5.9h2.9V222h2.9V219H402v-2.9h29.4V219z"/>
<path class="st1" d="M472.6,222h2.9v26.5h-2.9v2.9h-2.9v-2.9h-2.9v-11.8h-8.8v11.8H455v2.9h-11.8v-2.9h-2.9V222h2.9v2.9h2.9V222h2.9
	V219h-2.9v-2.9h23.5v2.9h2.9V222z M466.8,224.9h-8.8v2.9h8.8V224.9z"/>
<path class="st1" d="M516.8,219h2.9v29.4h-2.9v2.9h-5.9v-2.9h-2.9v-11.8H505v2.9H502v-2.9h-2.9v11.8h-2.9v2.9h-11.8v-2.9h-2.9V219
	h2.9v5.9h2.9V222h2.9V219h-5.9v-2.9h11.8v2.9h2.9v5.9h2.9v2.9h2.9v-2.9h2.9V219h2.9v-2.9h5.9V219z"/>
</svg>
